<svg width="21" height="13" viewBox="0 0 21 13" fill="none" xmlns="http://www.w3.org/2000/svg">
<path d="M10.5 12C14.489 12 17.958 9.776 19.735 6.5C18.8342 4.8361 17.5005 3.44658 15.8748 2.47842C14.2492 1.51026 12.3921 0.999442 10.5 1C8.60792 0.999442 6.75085 1.51026 5.12521 2.47842C3.49958 3.44658 2.16582 4.8361 1.26501 6.5C2.16582 8.1639 3.49958 9.55342 5.12521 10.5216C6.75085 11.4897 8.60792 12.0006 10.5 12ZM10.5 6.42059e-07C12.6634 -0.000722144 14.7832 0.608816 16.6157 1.7586C18.4483 2.90838 19.9194 4.55177 20.86 6.5C19.9194 8.44823 18.4483 10.0916 16.6157 11.2414C14.7832 12.3912 12.6634 13.0007 10.5 13C8.33661 13.0007 6.21687 12.3912 4.38429 11.2414C2.55171 10.0916 1.08063 8.44823 0.140015 6.5C1.08063 4.55177 2.55171 2.90838 4.38429 1.7586C6.21687 0.608816 8.33661 -0.000722144 10.5 6.42059e-07ZM10.5 2C11.6935 2 12.8381 2.47411 13.682 3.31802C14.5259 4.16193 15 5.30653 15 6.5C15 7.69347 14.5259 8.83807 13.682 9.68198C12.8381 10.5259 11.6935 11 10.5 11C9.30654 11 8.16195 10.5259 7.31803 9.68198C6.47412 8.83807 6.00001 7.69347 6.00001 6.5C6.00001 5.30653 6.47412 4.16193 7.31803 3.31802C8.16195 2.47411 9.30654 2 10.5 2ZM10.5 3C9.57176 3 8.68152 3.36875 8.02514 4.02513C7.36876 4.6815 7.00001 5.57174 7.00001 6.5C7.00001 7.42826 7.36876 8.3185 8.02514 8.97487C8.68152 9.63125 9.57176 10 10.5 10C11.4283 10 12.3185 9.63125 12.9749 8.97487C13.6313 8.3185 14 7.42826 14 6.5C14 5.57174 13.6313 4.6815 12.9749 4.02513C12.3185 3.36875 11.4283 3 10.5 3Z" fill="#4A4949"/>
</svg>
