<svg width="19" height="20" viewBox="0 0 19 20" fill="none" xmlns="http://www.w3.org/2000/svg">
<path d="M3 0.5H16C16.7956 0.5 17.5587 0.816071 18.1213 1.37868C18.6839 1.94129 19 2.70435 19 3.5V16.5C19 17.2956 18.6839 18.0587 18.1213 18.6213C17.5587 19.1839 16.7956 19.5 16 19.5H3C2.20435 19.5 1.44129 19.1839 0.87868 18.6213C0.316071 18.0587 0 17.2956 0 16.5V3.5C0 2.70435 0.316071 1.94129 0.87868 1.37868C1.44129 0.816071 2.20435 0.5 3 0.5ZM3 1.5C2.46957 1.5 1.96086 1.71071 1.58579 2.08579C1.21071 2.46086 1 2.96957 1 3.5V15.086L5.293 10.793L7.793 13.293L12.793 8.293L18 13.5V3.5C18 2.96957 17.7893 2.46086 17.4142 2.08579C17.0391 1.71071 16.5304 1.5 16 1.5H3ZM7.793 14.707L5.293 12.207L1 16.5C1 17.0304 1.21071 17.5391 1.58579 17.9142C1.96086 18.2893 2.46957 18.5 3 18.5H16C16.5304 18.5 17.0391 18.2893 17.4142 17.9142C17.7893 17.5391 18 17.0304 18 16.5V14.914L12.793 9.707L7.793 14.707ZM5.5 3.5C6.16304 3.5 6.79893 3.76339 7.26777 4.23223C7.73661 4.70107 8 5.33696 8 6C8 6.66304 7.73661 7.29893 7.26777 7.76777C6.79893 8.23661 6.16304 8.5 5.5 8.5C4.83696 8.5 4.20107 8.23661 3.73223 7.76777C3.26339 7.29893 3 6.66304 3 6C3 5.33696 3.26339 4.70107 3.73223 4.23223C4.20107 3.76339 4.83696 3.5 5.5 3.5ZM5.5 4.5C5.10218 4.5 4.72064 4.65804 4.43934 4.93934C4.15804 5.22064 4 5.60218 4 6C4 6.39782 4.15804 6.77936 4.43934 7.06066C4.72064 7.34196 5.10218 7.5 5.5 7.5C5.89782 7.5 6.27936 7.34196 6.56066 7.06066C6.84196 6.77936 7 6.39782 7 6C7 5.60218 6.84196 5.22064 6.56066 4.93934C6.27936 4.65804 5.89782 4.5 5.5 4.5Z" fill="#4A4949"/>
</svg>
