<svg width="19" height="19" viewBox="0 0 19 19" fill="none" xmlns="http://www.w3.org/2000/svg">
<path d="M13.62 18.119C13.3414 18.3976 13.0107 18.6187 12.6467 18.7694C12.2827 18.9202 11.8925 18.9979 11.4985 18.9979C11.1045 18.9979 10.7143 18.9202 10.3503 18.7694C9.98632 18.6187 9.65558 18.3976 9.377 18.119L1.054 9.996C0.45 9.448 0 8.63 0 7.75V3C0 2.20435 0.316071 1.44129 0.87868 0.87868C1.44129 0.316071 2.20435 0 3 0H7.75C8.63 0 9.448 0.451 9.996 1.054L18.069 9.427C18.6314 9.98958 18.9474 10.7525 18.9474 11.548C18.9474 12.3435 18.6314 13.1064 18.069 13.669L13.619 18.119H13.62ZM12.912 17.412L17.362 12.962C17.7369 12.5869 17.9476 12.0783 17.9476 11.548C17.9476 11.0177 17.7369 10.5091 17.362 10.134L9.112 1.584C8.776 1.197 8.302 1 7.75 1L2.973 0.973C1.87 0.973 1 1.895 1 3V7.75C1 8.302 1.197 8.776 1.584 9.112L10.084 17.412C10.4591 17.7869 10.9677 17.9976 11.498 17.9976C12.0283 17.9976 12.5369 17.7869 12.912 17.412ZM4.5 2C5.16304 2 5.79893 2.26339 6.26777 2.73223C6.73661 3.20107 7 3.83696 7 4.5C7 5.16304 6.73661 5.79893 6.26777 6.26777C5.79893 6.73661 5.16304 7 4.5 7C3.83696 7 3.20107 6.73661 2.73223 6.26777C2.26339 5.79893 2 5.16304 2 4.5C2 3.83696 2.26339 3.20107 2.73223 2.73223C3.20107 2.26339 3.83696 2 4.5 2ZM4.5 3C4.10218 3 3.72064 3.15804 3.43934 3.43934C3.15804 3.72064 3 4.10218 3 4.5C3 4.89782 3.15804 5.27936 3.43934 5.56066C3.72064 5.84196 4.10218 6 4.5 6C4.89782 6 5.27936 5.84196 5.56066 5.56066C5.84196 5.27936 6 4.89782 6 4.5C6 4.10218 5.84196 3.72064 5.56066 3.43934C5.27936 3.15804 4.89782 3 4.5 3Z" fill="#C71118"/>
</svg>
