<svg width="11" height="18" viewBox="0 0 11 18" fill="none" xmlns="http://www.w3.org/2000/svg">
<path d="M1 10V9H3.823C3.747 8.526 3.657 8.1 3.572 7.697C3.385 6.817 3.209 5.985 3.252 4.979C3.326 3.178 3.923 1.929 5.025 1.266C6.711 0.255 9.053 0.981 10.023 1.36L9.855 2.372C9.206 2.1 6.959 1.268 5.538 2.125C4.743 2.603 4.31 3.577 4.25 5.021C4.213 5.901 4.37 6.637 4.55 7.489C4.648 7.951 4.752 8.443 4.835 9H9V10H4.95C4.982 10.383 5 10.798 5 11.251C5 14.428 3.527 15.984 2.346 17H11V18H0.5V17L1.305 16.568C2.443 15.624 4 14.332 4 11.25C4 10.796 3.98 10.382 3.947 9.999H1V10Z" fill="#C71118"/>
</svg>
