<svg width="19" height="20" viewBox="0 0 19 20" fill="none" xmlns="http://www.w3.org/2000/svg">
<path d="M17.588 13.492L15.774 12.202C16.0787 11.0818 16.077 9.90032 15.769 8.781L17.589 7.507L16.136 4.993L14.112 5.919C13.2939 5.09502 12.2696 4.50584 11.146 4.213L10.953 2H8.04703L7.85403 4.213C6.73068 4.50625 5.70669 5.09578 4.88903 5.92L2.86403 4.994L1.41203 7.508L3.23203 8.782C2.92395 9.90091 2.92188 11.082 3.22603 12.202L1.41203 13.492L2.86403 15.994L4.88903 15.067C5.70681 15.8909 6.73079 16.48 7.85403 16.773L8.04703 18.986H10.953L11.146 16.773C12.2693 16.48 13.2932 15.8908 14.111 15.067L16.136 15.994L17.589 13.493L17.588 13.492ZM11.505 0.985001C11.6337 0.984865 11.7576 1.03437 11.8507 1.12322C11.9438 1.21207 11.9991 1.33342 12.005 1.462L12.183 3.497C12.9223 3.77871 13.6119 4.17636 14.226 4.675L16.076 3.812C16.1903 3.75321 16.3228 3.74067 16.4461 3.77698C16.5693 3.81329 16.6739 3.89566 16.738 4.007L18.743 7.477C18.8075 7.58823 18.8266 7.71999 18.7964 7.84494C18.7662 7.96989 18.6891 8.07842 18.581 8.148L16.907 9.32C17.035 10.118 17.031 10.913 16.908 11.679L18.581 12.849C18.6894 12.9186 18.7667 13.0273 18.7969 13.1525C18.827 13.2777 18.8078 13.4097 18.743 13.521L16.738 16.978C16.6739 17.0893 16.5693 17.1717 16.4461 17.208C16.3228 17.2443 16.1903 17.2318 16.076 17.173L14.226 16.31C13.624 16.8 12.938 17.2 12.183 17.489L12.005 19.524C11.9989 19.6524 11.9435 19.7735 11.8504 19.8621C11.7573 19.9508 11.6336 20.0002 11.505 20H7.49503C7.36648 20.0002 7.24281 19.9508 7.1497 19.8621C7.05659 19.7735 7.0012 19.6524 6.99503 19.524L6.81703 17.489C6.07776 17.2069 5.38813 16.809 4.77403 16.31L2.92403 17.173C2.80979 17.2322 2.67713 17.245 2.55364 17.2089C2.43016 17.1728 2.32536 17.0904 2.26103 16.979L0.257031 13.52C0.192609 13.4088 0.173497 13.277 0.203663 13.1521C0.233829 13.0271 0.310956 12.9186 0.419031 12.849L2.09203 11.678C1.96675 10.8967 1.96675 10.1003 2.09203 9.319L0.420031 8.148C0.312221 8.07844 0.235278 7.97009 0.205124 7.84538C0.17497 7.72067 0.193912 7.58914 0.258031 7.478L2.26003 4.007C2.32419 3.8954 2.42892 3.81284 2.55242 3.77652C2.67592 3.7402 2.80867 3.75291 2.92303 3.812L4.77303 4.675C5.38717 4.17636 6.07681 3.77871 6.81603 3.497L6.99403 1.462C6.99995 1.33342 7.05523 1.21207 7.14837 1.12322C7.2415 1.03437 7.36531 0.984865 7.49403 0.985001H11.504H11.505ZM9.50003 7C10.4283 7 11.3185 7.36875 11.9749 8.02513C12.6313 8.6815 13 9.57174 13 10.5C13 11.4283 12.6313 12.3185 11.9749 12.9749C11.3185 13.6313 10.4283 14 9.50003 14C8.57177 14 7.68153 13.6313 7.02516 12.9749C6.36878 12.3185 6.00003 11.4283 6.00003 10.5C6.00003 9.57174 6.36878 8.6815 7.02516 8.02513C7.68153 7.36875 8.57177 7 9.50003 7ZM9.50003 8C8.83699 8 8.2011 8.26339 7.73226 8.73223C7.26342 9.20107 7.00003 9.83696 7.00003 10.5C7.00003 11.163 7.26342 11.7989 7.73226 12.2678C8.2011 12.7366 8.83699 13 9.50003 13C10.1631 13 10.799 12.7366 11.2678 12.2678C11.7366 11.7989 12 11.163 12 10.5C12 9.83696 11.7366 9.20107 11.2678 8.73223C10.799 8.26339 10.1631 8 9.50003 8V8Z" fill="#4A4949"/>
</svg>
