<svg width="21" height="19" viewBox="0 0 21 19" fill="none" xmlns="http://www.w3.org/2000/svg">
<path d="M1 7.99999H4C4.26522 7.99999 4.51957 8.10534 4.70711 8.29288C4.89464 8.48042 5 8.73477 5 8.99999V18C5 18.2652 4.89464 18.5196 4.70711 18.7071C4.51957 18.8946 4.26522 19 4 19H1C0.734784 19 0.48043 18.8946 0.292893 18.7071C0.105357 18.5196 0 18.2652 0 18V8.99999C0 8.73477 0.105357 8.48042 0.292893 8.29288C0.48043 8.10534 0.734784 7.99999 1 7.99999ZM1 8.99999V18H4V8.99999H1ZM16.716 17.025L19.717 12.025C19.897 11.725 20 11.375 20 11V9.99999C20 9.46955 19.7893 8.96085 19.4142 8.58577C19.0391 8.2107 18.5304 7.99999 18 7.99999H12.39L13.847 2.55999L13.852 2.54199C13.8975 2.37249 13.8977 2.19399 13.8524 2.02443C13.8071 1.85486 13.718 1.7002 13.594 1.57599L7.585 7.58499C7.39907 7.77067 7.25166 7.99126 7.15127 8.2341C7.05087 8.47693 6.99947 8.73722 7 8.99999V16C7 16.5304 7.21071 17.0391 7.58579 17.4142C7.96086 17.7893 8.46957 18 9 18H15C15.73 18 16.368 17.61 16.716 17.025ZM21 11C21 11.594 20.828 12.147 20.53 12.612L17.624 17.455C17.3643 17.9233 16.984 18.3135 16.5226 18.5852C16.0612 18.8568 15.5355 19.0001 15 19H9C8.20435 19 7.44129 18.6839 6.87868 18.1213C6.31607 17.5587 6 16.7956 6 16V8.99999C6 8.17199 6.335 7.42299 6.877 6.87999L13.594 0.161987L14.301 0.868987C14.554 1.12198 14.7345 1.43822 14.8237 1.78472C14.9128 2.13121 14.9074 2.49529 14.808 2.83899L13.693 6.99999H18C18.7956 6.99999 19.5587 7.31606 20.1213 7.87867C20.6839 8.44128 21 9.20434 21 9.99999V11Z" fill="#C71118"/>
</svg>
