<svg width="20" height="18" viewBox="0 0 20 18" fill="none" xmlns="http://www.w3.org/2000/svg">
<path d="M3.50835 9.59149C3.50729 9.58572 3.50632 9.57992 3.50545 9.57409L2.28534 2.2534C2.16479 1.53012 1.539 1 0.805746 1H0.5C0.223858 1 0 0.776142 0 0.5C0 0.223858 0.223858 0 0.5 0H0.805746C1.99756 0 3.01903 0.840292 3.25526 2H19.5C19.8322 2 20.072 2.31795 19.9808 2.63736L17.9808 9.63736C17.9194 9.85201 17.7232 10 17.5 10H4.59023L4.71466 10.7466C4.83521 11.4699 5.461 12 6.19425 12H17.5C17.7761 12 18 12.2239 18 12.5C18 12.7761 17.7761 13 17.5 13H6.19425C4.97216 13 3.92918 12.1165 3.72827 10.911L3.50835 9.59149V9.59149ZM3.42356 3L4.42356 9H17.1228L18.8371 3H3.42356ZM6 18C4.89543 18 4 17.1046 4 16C4 14.8954 4.89543 14 6 14C7.10457 14 8 14.8954 8 16C8 17.1046 7.10457 18 6 18ZM6 17C6.55228 17 7 16.5523 7 16C7 15.4477 6.55228 15 6 15C5.44772 15 5 15.4477 5 16C5 16.5523 5.44772 17 6 17ZM15 18C13.8954 18 13 17.1046 13 16C13 14.8954 13.8954 14 15 14C16.1046 14 17 14.8954 17 16C17 17.1046 16.1046 18 15 18ZM15 17C15.5523 17 16 16.5523 16 16C16 15.4477 15.5523 15 15 15C14.4477 15 14 15.4477 14 16C14 16.5523 14.4477 17 15 17Z" fill="#262626"/>
</svg>
