<svg width="27" height="23" viewBox="0 0 27 23" fill="none" xmlns="http://www.w3.org/2000/svg">
<path d="M3.6201 20.2383L3.42399 21.2189H3.42399L3.6201 20.2383ZM23.3799 20.2383L23.576 21.2189L23.3799 20.2383ZM23.5155 2.9319L23.725 1.9541L23.5155 2.9319ZM3.48445 2.9319L3.69398 3.9097L3.48445 2.9319ZM11.119 7.92857L11.6335 7.07108C11.3246 6.88572 10.9398 6.88087 10.6263 7.05837C10.3128 7.23588 10.119 7.5683 10.119 7.92857H11.119ZM11.119 15.0714H10.119C10.119 15.4317 10.3128 15.7641 10.6263 15.9416C10.9398 16.1191 11.3246 16.1143 11.6335 15.9289L11.119 15.0714ZM17.0714 11.5L17.5859 12.3575C17.8871 12.1768 18.0714 11.8513 18.0714 11.5C18.0714 11.1487 17.8871 10.8232 17.5859 10.6425L17.0714 11.5ZM0.595215 5.26886V17.7683H2.59521V5.26886H0.595215ZM26.4047 17.7683V5.26885H24.4047V17.7683H26.4047ZM3.42399 21.2189C10.0754 22.5492 16.9245 22.5492 23.576 21.2189L23.1837 19.2577C16.7912 20.5362 10.2088 20.5362 3.81622 19.2577L3.42399 21.2189ZM23.725 1.9541C16.9848 0.509767 10.0151 0.509767 3.27492 1.9541L3.69398 3.9097C10.1579 2.52457 16.842 2.52457 23.306 3.9097L23.725 1.9541ZM26.4047 5.26885C26.4047 3.67034 25.2881 2.28903 23.725 1.9541L23.306 3.9097C23.9469 4.04704 24.4047 4.61341 24.4047 5.26885H26.4047ZM24.4047 17.7683C24.4047 18.4924 23.8937 19.1157 23.1837 19.2577L23.576 21.2189C25.2208 20.8899 26.4047 19.4457 26.4047 17.7683H24.4047ZM0.595215 17.7683C0.595215 19.4457 1.77918 20.8899 3.42399 21.2189L3.81622 19.2577C3.10626 19.1157 2.59521 18.4924 2.59521 17.7683H0.595215ZM2.59521 5.26886C2.59521 4.61341 3.05308 4.04704 3.69398 3.9097L3.27492 1.9541C1.71188 2.28903 0.595215 3.67034 0.595215 5.26886H2.59521ZM10.119 7.92857V15.0714H12.119V7.92857H10.119ZM11.6335 15.9289L17.5859 12.3575L16.5569 10.6425L10.6045 14.2139L11.6335 15.9289ZM17.5859 10.6425L11.6335 7.07108L10.6045 8.78606L16.5569 12.3575L17.5859 10.6425Z" fill="white"/>
</svg>
