<svg width="26" height="23" viewBox="0 0 26 23" fill="none" xmlns="http://www.w3.org/2000/svg">
<path d="M24.3933 1.78564L25.3911 1.71949C25.3645 1.31835 25.1003 0.972133 24.7203 0.840644C24.3404 0.709155 23.9187 0.817959 23.6498 1.11684L24.3933 1.78564ZM23.7631 6.61651C23.7631 6.06422 23.3154 5.61651 22.7631 5.61651C22.2109 5.61651 21.7631 6.06422 21.7631 6.61651H23.7631ZM13 8.07136V9.07136H14V8.07136H13ZM3.20154 1.78564L4.13805 1.435C3.99852 1.06232 3.6513 0.807852 3.2539 0.787016C2.85651 0.76618 2.48459 0.982947 2.30684 1.33898L3.20154 1.78564ZM9.57141 16.6428L10.2791 17.3493C10.5238 17.1042 10.6243 16.75 10.5446 16.4129C10.465 16.0758 10.2166 15.8039 9.88808 15.6943L9.57141 16.6428ZM1.57141 19.7448V18.7448C1.13088 18.7448 0.742233 19.0331 0.614422 19.4547C0.486612 19.8763 0.649745 20.3319 1.01612 20.5765L1.57141 19.7448ZM21.516 3.37484L20.7743 4.04552L21.1346 4.44401L21.6657 4.36356L21.516 3.37484ZM23.3955 1.8518C23.479 3.11245 23.3996 3.85402 23.2061 4.39943C23.02 4.92394 22.6943 5.3646 22.0713 5.96158L23.455 7.40563C24.1791 6.71182 24.7553 6.0144 25.091 5.06808C25.4193 4.14266 25.4813 3.08065 25.3911 1.71949L23.3955 1.8518ZM23.7631 7.80604V6.6836H21.7631V7.80604H23.7631ZM23.7631 6.6836V6.61651H21.7631V6.6836H23.7631ZM12 6.9285V8.07136H14V6.9285H12ZM17.9397 0.785645C14.5987 0.785645 12 3.68639 12 6.9285H14C14 4.68636 15.805 2.78564 17.9397 2.78564V0.785645ZM21.7631 7.80604C21.7631 14.7688 15.9119 20.7856 8.99998 20.7856V22.7856C17.0555 22.7856 23.7631 15.8339 23.7631 7.80604H21.7631ZM2.26504 2.13629C3.18361 4.58959 6.60456 9.07136 13 9.07136V7.07136C7.65844 7.07136 4.84962 3.33544 4.13805 1.435L2.26504 2.13629ZM2.30684 1.33898C0.582508 4.79298 0.267679 8.20444 1.49034 11.1304C2.71303 14.0564 5.3916 16.3016 9.25474 17.5913L9.88808 15.6943C6.41562 14.535 4.27912 12.6169 3.33571 10.3593C2.39228 8.10155 2.56031 5.30892 4.09625 2.23231L2.30684 1.33898ZM8.86375 15.9362C7.9194 16.8821 5.16047 18.7448 1.57141 18.7448V20.7448C5.80699 20.7448 9.04994 18.5804 10.2791 17.3493L8.86375 15.9362ZM22.2577 2.70415C21.1938 1.52747 19.6527 0.785645 17.9397 0.785645V2.78564C19.0634 2.78564 20.0731 3.27008 20.7743 4.04552L22.2577 2.70415ZM21.6657 4.36356C22.9511 4.16889 24.2006 3.49507 25.1367 2.45445L23.6498 1.11684C23.0113 1.82666 22.176 2.26348 21.3662 2.38611L21.6657 4.36356ZM1.01612 20.5765C3.67782 22.3537 6.24185 22.7856 8.99998 22.7856V20.7856C6.48985 20.7856 4.3554 20.4013 2.1267 18.9132L1.01612 20.5765Z" fill="white"/>
</svg>
