<svg width="16" height="12" viewBox="0 0 16 12" fill="none" xmlns="http://www.w3.org/2000/svg">
<path d="M7.63293 10.8614C7.70304 10.9558 7.79686 11.0329 7.90631 11.0862C8.01575 11.1395 8.13754 11.1674 8.26118 11.1674C8.38481 11.1674 8.5066 11.1395 8.61604 11.0862C8.72549 11.0329 8.81931 10.9558 8.88942 10.8614L15.7681 1.65305C15.8477 1.54684 15.8944 1.42244 15.9031 1.29336C15.9118 1.16428 15.8821 1.03547 15.8174 0.920909C15.7526 0.806351 15.6552 0.710431 15.5358 0.643571C15.4163 0.576712 15.2794 0.541469 15.1398 0.541673H1.38253C1.24331 0.542206 1.10688 0.577901 0.987913 0.644921C0.868945 0.711941 0.77194 0.807749 0.707331 0.922043C0.642723 1.03634 0.612954 1.16479 0.621226 1.29359C0.629499 1.42239 0.6755 1.54666 0.754283 1.65305L7.63293 10.8614Z" fill="#4A4949"/>
</svg>
