<svg width="19" height="19" viewBox="0 0 19 19" fill="none" xmlns="http://www.w3.org/2000/svg">
<path d="M17.9449 3.37781C17.9449 2.95558 17.5754 2.63892 17.1532 2.63892H5.43652L6.49208 3.69447H16.8893V4.01114L11.8226 9.07781L12.5615 9.8167L17.6282 4.75003C17.8393 4.53892 17.9449 4.27503 17.9449 4.01114V3.43058V3.37781Z" fill="#4A4949"/>
<path d="M1.42511 1.58337L2.48066 2.63893H1.95289C1.53066 2.58615 1.10844 2.90282 1.05566 3.32504V3.90559C1.05566 4.16948 1.16122 4.43337 1.37233 4.64448L7.389 10.6611V16.0973L8.39178 16.5195V10.2389L2.11122 3.95837V3.69448H3.53622L10.5557 10.7139V17.5223L11.6112 17.9445V11.7695L16.9418 17.1L17.6807 16.3611L2.164 0.844482L1.42511 1.58337Z" fill="#4A4949"/>
</svg>
