<svg width="22" height="27" viewBox="0 0 22 27" fill="none" xmlns="http://www.w3.org/2000/svg">
<path d="M17.4168 10.1111H1.58344C1.44347 10.1111 1.30922 10.1667 1.21025 10.2657C1.11127 10.3646 1.05566 10.4989 1.05566 10.6389V11.5203C1.05576 11.6449 1.08053 11.7683 1.12854 11.8833C1.17655 11.9984 1.24685 12.1028 1.33539 12.1905L7.389 18.3339V23.7172L8.44455 24.1183V18.0278C8.44495 17.9583 8.43164 17.8894 8.40538 17.8251C8.37911 17.7608 8.34041 17.7023 8.2915 17.653L2.11122 11.478V11.1666H16.889V11.4886L10.7298 17.653C10.6771 17.7006 10.6345 17.7582 10.6046 17.8226C10.5746 17.887 10.558 17.9568 10.5557 18.0278V24.9997L11.6112 25.4166V18.2916L17.6648 12.2222C17.7548 12.1322 17.8259 12.0252 17.8739 11.9074C17.922 11.7895 17.946 11.6633 17.9446 11.5361V10.6389C17.9446 10.4989 17.8889 10.3646 17.79 10.2657C17.691 10.1667 17.5568 10.1111 17.4168 10.1111Z" fill="#4A4949"/>
<path d="M17.6464 8.35355C17.8417 8.54882 18.1583 8.54882 18.3536 8.35355L21.5355 5.17157C21.7308 4.97631 21.7308 4.65973 21.5355 4.46447C21.3403 4.2692 21.0237 4.2692 20.8284 4.46447L18 7.29289L15.1716 4.46447C14.9763 4.2692 14.6597 4.2692 14.4645 4.46447C14.2692 4.65973 14.2692 4.97631 14.4645 5.17157L17.6464 8.35355ZM18.5 8V0H17.5V8H18.5Z" fill="#4A4949"/>
</svg>
