<svg width="47" height="47" viewBox="0 0 47 47" fill="none" xmlns="http://www.w3.org/2000/svg">
<path d="M23.5 0C29.7326 0 35.7099 2.47589 40.117 6.88299C44.5241 11.2901 47 17.2674 47 23.5C47 29.7326 44.5241 35.7099 40.117 40.117C35.7099 44.5241 29.7326 47 23.5 47C17.2674 47 11.2901 44.5241 6.88299 40.117C2.47589 35.7099 0 29.7326 0 23.5C0 17.2674 2.47589 11.2901 6.88299 6.88299C11.2901 2.47589 17.2674 0 23.5 0ZM23.5 2.47368C17.9235 2.47368 12.5753 4.68895 8.63215 8.63215C4.68895 12.5753 2.47368 17.9235 2.47368 23.5C2.47368 29.0765 4.68895 34.4247 8.63215 38.3679C12.5753 42.3111 17.9235 44.5263 23.5 44.5263C29.0765 44.5263 34.4247 42.3111 38.3679 38.3679C42.3111 34.4247 44.5263 29.0765 44.5263 23.5C44.5263 17.9235 42.3111 12.5753 38.3679 8.63215C34.4247 4.68895 29.0765 2.47368 23.5 2.47368ZM22.2632 9.89474H24.7368V23.3095L36.3533 30.0157L35.1164 32.1579L22.2632 24.7368V9.89474Z" fill="#4A4949"/>
</svg>
