<svg width="15" height="19" viewBox="0 0 15 19" fill="none" xmlns="http://www.w3.org/2000/svg">
<path d="M13.5003 15.4167C13.5003 16.146 13.2106 16.8455 12.6949 17.3612C12.1791 17.8769 11.4797 18.1667 10.7503 18.1667H4.33366C3.60431 18.1667 2.90484 17.8769 2.38912 17.3612C1.87339 16.8455 1.58366 16.146 1.58366 15.4167V4.41667H0.666992V1.66667H4.79199L5.70866 0.75H9.37533L10.292 1.66667H14.417V4.41667H13.5003V15.4167ZM2.50033 4.41667V15.4167C2.50033 15.9029 2.69348 16.3692 3.0373 16.713C3.38111 17.0568 3.84743 17.25 4.33366 17.25H10.7503C11.2366 17.25 11.7029 17.0568 12.0467 16.713C12.3905 16.3692 12.5837 15.9029 12.5837 15.4167V4.41667H2.50033ZM13.5003 3.5V2.58333H9.83366L8.91699 1.66667H6.16699L5.25033 2.58333H1.58366V3.5H13.5003ZM4.33366 6.25H5.25033V15.4167H4.33366V6.25ZM9.83366 6.25H10.7503V15.4167H9.83366V6.25Z" fill="#4A4949"/>
</svg>
