<svg width="17" height="19" viewBox="0 0 17 19" fill="none" xmlns="http://www.w3.org/2000/svg">
<path d="M15.9154 16C15.9154 16.7956 15.5765 17.5587 14.9732 18.1213C14.3699 18.6839 13.5517 19 12.6985 19H5.19232C4.33913 19 3.5209 18.6839 2.9176 18.1213C2.31431 17.5587 1.97539 16.7956 1.97539 16V4H0.903076V1H5.72847L6.80078 0H11.09L12.1623 1H16.9877V4H15.9154V16ZM3.0477 4V16C3.0477 16.5304 3.27365 17.0391 3.67584 17.4142C4.07804 17.7893 4.62353 18 5.19232 18H12.6985C13.2673 18 13.8128 17.7893 14.215 17.4142C14.6172 17.0391 14.8431 16.5304 14.8431 16V4H3.0477ZM15.9154 3V2H11.6262L10.5539 1H7.33694L6.26463 2H1.97539V3H15.9154ZM5.19232 6H6.26463V16H5.19232V6ZM11.6262 6H12.6985V16H11.6262V6Z" fill="black"/>
</svg>
