<svg width="226" height="226" viewBox="0 0 226 226" fill="none" xmlns="http://www.w3.org/2000/svg">
<path d="M35.6842 0H190.316C199.78 0 208.856 3.75958 215.548 10.4517C222.24 17.1438 226 26.2202 226 35.6842V190.316C226 199.78 222.24 208.856 215.548 215.548C208.856 222.24 199.78 226 190.316 226H35.6842C26.2202 226 17.1438 222.24 10.4517 215.548C3.75958 208.856 0 199.78 0 190.316V35.6842C0 26.2202 3.75958 17.1438 10.4517 10.4517C17.1438 3.75958 26.2202 0 35.6842 0ZM35.6842 11.8947C29.3749 11.8947 23.3239 14.4011 18.8625 18.8625C14.4011 23.3239 11.8947 29.3749 11.8947 35.6842V173.497L62.9588 122.433L92.6957 152.169L152.169 92.6957L214.105 154.632V35.6842C214.105 29.3749 211.599 23.3239 207.137 18.8625C202.676 14.4011 196.625 11.8947 190.316 11.8947H35.6842ZM92.6957 168.989L62.9588 139.252L11.8947 190.316C11.8947 196.625 14.4011 202.676 18.8625 207.137C23.3239 211.599 29.3749 214.105 35.6842 214.105H190.316C196.625 214.105 202.676 211.599 207.137 207.137C211.599 202.676 214.105 196.625 214.105 190.316V171.451L152.169 109.515L92.6957 168.989ZM65.4211 35.6842C73.3078 35.6842 80.8714 38.8172 86.4482 44.3939C92.0249 49.9707 95.1579 57.5344 95.1579 65.4211C95.1579 73.3078 92.0249 80.8714 86.4482 86.4482C80.8714 92.0249 73.3078 95.1579 65.4211 95.1579C57.5344 95.1579 49.9707 92.0249 44.3939 86.4482C38.8172 80.8714 35.6842 73.3078 35.6842 65.4211C35.6842 57.5344 38.8172 49.9707 44.3939 44.3939C49.9707 38.8172 57.5344 35.6842 65.4211 35.6842ZM65.4211 47.5789C60.689 47.5789 56.1508 49.4587 52.8048 52.8048C49.4587 56.1508 47.5789 60.689 47.5789 65.4211C47.5789 70.1531 49.4587 74.6913 52.8048 78.0373C56.1508 81.3834 60.689 83.2632 65.4211 83.2632C70.1531 83.2632 74.6913 81.3834 78.0373 78.0373C81.3834 74.6913 83.2632 70.1531 83.2632 65.4211C83.2632 60.689 81.3834 56.1508 78.0373 52.8048C74.6913 49.4587 70.1531 47.5789 65.4211 47.5789Z" fill="#D6D6D6"/>
</svg>
