<svg width="14" height="2" viewBox="0 0 14 2" fill="none" xmlns="http://www.w3.org/2000/svg">
<path d="M1.9375 1C1.9375 1.18542 1.88252 1.36668 1.7795 1.52085C1.67649 1.67502 1.53007 1.79518 1.35877 1.86614C1.18746 1.93709 0.99896 1.95566 0.817103 1.91949C0.635246 1.88331 0.4682 1.79403 0.337088 1.66291C0.205976 1.5318 0.116688 1.36475 0.0805142 1.1829C0.0443406 1.00104 0.0629062 0.81254 0.133863 0.641234C0.20482 0.469928 0.324982 0.323511 0.479153 0.220497C0.633324 0.117483 0.81458 0.0625 1 0.0625C1.24856 0.062773 1.48686 0.161632 1.66261 0.337389C1.83837 0.513145 1.93723 0.751443 1.9375 1ZM13 0.0625C12.8146 0.0625 12.6333 0.117483 12.4791 0.220497C12.325 0.323511 12.2048 0.469928 12.1339 0.641234C12.0629 0.81254 12.0443 1.00104 12.0805 1.1829C12.1167 1.36475 12.206 1.5318 12.3371 1.66291C12.4682 1.79403 12.6352 1.88331 12.8171 1.91949C12.999 1.95566 13.1875 1.93709 13.3588 1.86614C13.5301 1.79518 13.6765 1.67502 13.7795 1.52085C13.8825 1.36668 13.9375 1.18542 13.9375 1C13.9372 0.751443 13.8384 0.513145 13.6626 0.337389C13.4869 0.161632 13.2486 0.062773 13 0.0625ZM7 0.0625C6.81458 0.0625 6.63332 0.117483 6.47915 0.220497C6.32498 0.323511 6.20482 0.469928 6.13386 0.641234C6.06291 0.81254 6.04434 1.00104 6.08051 1.1829C6.11669 1.36475 6.20598 1.5318 6.33709 1.66291C6.4682 1.79403 6.63524 1.88331 6.8171 1.91949C6.99896 1.95566 7.18746 1.93709 7.35876 1.86614C7.53007 1.79518 7.67649 1.67502 7.7795 1.52085C7.88252 1.36668 7.9375 1.18542 7.9375 1C7.93723 0.751443 7.83837 0.513145 7.66261 0.337389C7.48685 0.161632 7.24856 0.062773 7 0.0625Z" fill="black"/>
</svg>
