<svg width="17" height="17" viewBox="0 0 17 17" fill="none" xmlns="http://www.w3.org/2000/svg">
<path d="M8.3125 0.875C7.33574 0.875057 6.36855 1.0675 5.46616 1.44135C4.56377 1.81519 3.74385 2.36311 3.05321 3.05383C2.36258 3.74455 1.81475 4.56453 1.44101 5.46697C1.06727 6.3694 0.874942 7.33661 0.875 8.31338C0.875057 9.29014 1.0675 10.2573 1.44135 11.1597C1.81519 12.0621 2.36311 12.882 3.05383 13.5727C3.74455 14.2633 4.56453 14.8111 5.46697 15.1849C6.3694 15.5586 7.33661 15.7509 8.31338 15.7509C10.286 15.7508 12.1779 14.967 13.5727 13.572C14.9675 12.1771 15.751 10.2852 15.7509 8.3125C15.7508 6.33984 14.967 4.44801 13.572 3.05321C12.1771 1.65841 10.2852 0.874884 8.3125 0.875ZM8.3125 0C10.5171 0 12.6314 0.875779 14.1903 2.43467C15.7492 3.99357 16.625 6.10789 16.625 8.3125C16.625 10.5171 15.7492 12.6314 14.1903 14.1903C12.6314 15.7492 10.5171 16.625 8.3125 16.625C6.10789 16.625 3.99357 15.7492 2.43467 14.1903C0.875779 12.6314 0 10.5171 0 8.3125C0 6.10789 0.875779 3.99357 2.43467 2.43467C3.99357 0.875779 6.10789 0 8.3125 0ZM7.875 12.25H8.75V14H7.875V12.25ZM8.3125 2.625C9.12473 2.625 9.90368 2.94766 10.478 3.52199C11.0523 4.09632 11.375 4.87527 11.375 5.6875C11.375 6.47237 10.7634 7.01662 10.1159 7.5915L9.29775 8.38163C8.78325 8.97138 8.72725 10.0922 8.74912 10.4746V10.5H7.875C7.8715 10.4545 7.78575 8.7815 8.63975 7.80587L9.534 6.93787C10.052 6.47762 10.5 6.0795 10.5 5.6875C10.5 5.10734 10.2695 4.55094 9.8593 4.1407C9.44906 3.73047 8.89266 3.5 8.3125 3.5C7.73234 3.5 7.17594 3.73047 6.7657 4.1407C6.35547 4.55094 6.125 5.10734 6.125 5.6875H5.25C5.25 4.87527 5.57266 4.09632 6.14699 3.52199C6.72132 2.94766 7.50027 2.625 8.3125 2.625Z" fill="#C71118"/>
</svg>
