<svg width="17" height="17" viewBox="0 0 17 17" fill="none" xmlns="http://www.w3.org/2000/svg">
<path d="M12.9439 12.3154L16.3698 15.7413C16.5434 15.9149 16.5434 16.1963 16.3698 16.3698C16.1963 16.5434 15.9149 16.5434 15.7413 16.3698L12.3154 12.9439C11.0617 14.0507 9.41485 14.7222 7.61111 14.7222C3.68375 14.7222 0.5 11.5385 0.5 7.61111C0.5 3.68375 3.68375 0.5 7.61111 0.5C11.5385 0.5 14.7222 3.68375 14.7222 7.61111C14.7222 9.41485 14.0507 11.0617 12.9439 12.3154ZM7.61111 13.8333C11.0475 13.8333 13.8333 11.0475 13.8333 7.61111C13.8333 4.17467 11.0475 1.38889 7.61111 1.38889C4.17467 1.38889 1.38889 4.17467 1.38889 7.61111C1.38889 11.0475 4.17467 13.8333 7.61111 13.8333Z" fill="#262626"/>
</svg>
