<svg width="50" height="50" viewBox="0 0 50 50" fill="none" xmlns="http://www.w3.org/2000/svg">
<path d="M33.75 12.5H16.25C14.1789 12.5 12.5 14.1789 12.5 16.25V33.75C12.5 35.8211 14.1789 37.5 16.25 37.5H33.75C35.8211 37.5 37.5 35.8211 37.5 33.75V16.25C37.5 14.1789 35.8211 12.5 33.75 12.5ZM33.75 10C37.2018 10 40 12.7982 40 16.25V33.75C40 37.2018 37.2018 40 33.75 40H16.25C12.7982 40 10 37.2018 10 33.75V16.25C10 12.7982 12.7982 10 16.25 10H33.75ZM7.5 1.25C7.5 0.559644 8.05964 0 8.75 0C9.44036 0 10 0.559644 10 1.25V8.75C10 9.44036 9.44036 10 8.75 10H1.25C0.559644 10 0 9.44036 0 8.75C0 8.05964 0.559644 7.5 1.25 7.5H7.5V1.25ZM42.5 7.5H48.75C49.4404 7.5 50 8.05964 50 8.75C50 9.44036 49.4404 10 48.75 10H41.25C40.5596 10 40 9.44036 40 8.75V1.25C40 0.559644 40.5596 0 41.25 0C41.9404 0 42.5 0.559644 42.5 1.25V7.5ZM7.5 42.5H1.25C0.559644 42.5 0 41.9404 0 41.25C0 40.5596 0.559644 40 1.25 40H8.75C9.44036 40 10 40.5596 10 41.25V48.75C10 49.4404 9.44036 50 8.75 50C8.05964 50 7.5 49.4404 7.5 48.75V42.5ZM42.5 42.5V48.75C42.5 49.4404 41.9404 50 41.25 50C40.5596 50 40 49.4404 40 48.75V41.25C40 40.5596 40.5596 40 41.25 40H48.75C49.4404 40 50 40.5596 50 41.25C50 41.9404 49.4404 42.5 48.75 42.5H42.5Z" fill="#1A1A1A"/>
</svg>
