<svg width="35" height="35" viewBox="0 0 35 35" fill="none" xmlns="http://www.w3.org/2000/svg">
<path d="M17.5 0C22.1413 0 26.5925 1.84374 29.8744 5.12563C33.1563 8.40752 35 12.8587 35 17.5C35 22.1413 33.1563 26.5925 29.8744 29.8744C26.5925 33.1563 22.1413 35 17.5 35C12.8587 35 8.40752 33.1563 5.12563 29.8744C1.84374 26.5925 0 22.1413 0 17.5C0 12.8587 1.84374 8.40752 5.12563 5.12563C8.40752 1.84374 12.8587 0 17.5 0ZM17.5 1.84211C13.3473 1.84211 9.36462 3.49177 6.4282 6.4282C3.49177 9.36462 1.84211 13.3473 1.84211 17.5C1.84211 21.6527 3.49177 25.6354 6.4282 28.5718C9.36462 31.5082 13.3473 33.1579 17.5 33.1579C21.6527 33.1579 25.6354 31.5082 28.5718 28.5718C31.5082 25.6354 33.1579 21.6527 33.1579 17.5C33.1579 13.3473 31.5082 9.36462 28.5718 6.4282C25.6354 3.49177 21.6527 1.84211 17.5 1.84211ZM16.5789 7.36842H18.4211V17.3582L27.0716 22.3521L26.1505 23.9474L16.5789 18.4211V7.36842Z" fill="#4A4949"/>
</svg>
