<svg width="17" height="16" viewBox="0 0 17 16" fill="none" xmlns="http://www.w3.org/2000/svg">
<path d="M16.4168 0.111084H0.583442C0.443466 0.111084 0.309224 0.166689 0.210247 0.265667C0.111269 0.364644 0.0556641 0.498886 0.0556641 0.638862V1.52025C0.0557627 1.6449 0.0805298 1.76831 0.128538 1.88334C0.176546 1.99838 0.246846 2.10278 0.335386 2.19053L6.389 8.33386V13.7172L7.44455 14.1183V8.02775C7.44495 7.95829 7.43164 7.88944 7.40538 7.82513C7.37911 7.76083 7.34041 7.70234 7.2915 7.65303L1.11122 1.47803V1.16664H15.889V1.48858L9.72983 7.65303C9.67709 7.70056 9.63448 7.75825 9.60455 7.82264C9.57462 7.88702 9.558 7.95679 9.55566 8.02775V14.9997L10.6112 15.4166V8.29164L16.6648 2.2222C16.7548 2.13222 16.8259 2.02519 16.8739 1.90736C16.922 1.78954 16.946 1.66331 16.9446 1.53608V0.638862C16.9446 0.498886 16.8889 0.364644 16.79 0.265667C16.691 0.166689 16.5567 0.111084 16.4168 0.111084V0.111084Z" fill="#4A4949"/>
</svg>
