<svg width="19" height="19" viewBox="0 0 19 19" fill="none" xmlns="http://www.w3.org/2000/svg">
<path d="M17.9444 3.37756C17.9444 2.95534 17.5749 2.63867 17.1527 2.63867H5.43604L6.49159 3.69423H16.8888V4.01089L11.8221 9.07756L12.561 9.81645L17.6277 4.74978C17.8388 4.53867 17.9444 4.27478 17.9444 4.01089V3.43034V3.37756Z" fill="#4A4949"/>
<path d="M1.42511 1.58362L2.48066 2.63917H1.95289C1.53066 2.58639 1.10844 2.90306 1.05566 3.32528V3.90584C1.05566 4.16973 1.16122 4.43362 1.37233 4.64473L7.389 10.6614V16.0975L8.39178 16.5197V10.2392L2.11122 3.95862V3.69473H3.53622L10.5557 10.7142V17.5225L11.6112 17.9447V11.7697L16.9418 17.1003L17.6807 16.3614L2.164 0.844727L1.42511 1.58362Z" fill="#4A4949"/>
</svg>
