<svg width="24" height="19" viewBox="0 0 24 19" fill="none" xmlns="http://www.w3.org/2000/svg">
<path d="M13.0171 12.812L17.2391 9.1511L13.0171 5.49023" stroke="#1A1A1A" stroke-width="0.761905" stroke-linecap="round" stroke-linejoin="round"/>
<path d="M17.2392 9.15112H0.878906" stroke="#1A1A1A" stroke-width="0.761905" stroke-linecap="round" stroke-linejoin="round"/>
<path d="M5.98047 5.10895V3.03995C5.98046 2.39436 6.27546 1.77506 6.80088 1.31764C7.32631 0.860225 8.03934 0.601954 8.78389 0.599372L19.975 0.560322C20.3448 0.559038 20.7112 0.620935 21.0533 0.742476C21.3955 0.864017 21.7067 1.04282 21.9691 1.26867C22.2315 1.49452 22.4401 1.763 22.5828 2.05875C22.7255 2.35451 22.7997 2.67175 22.801 2.99236L22.8573 15.2306C22.8587 15.5511 22.7874 15.8687 22.6473 16.1653C22.5072 16.4619 22.3012 16.7317 22.0408 16.9592C21.7805 17.1868 21.471 17.3676 21.1301 17.4915C20.7892 17.6153 20.4235 17.6797 20.0538 17.681H8.79514C8.04865 17.681 7.33272 17.4238 6.80487 16.9661C6.27701 16.5084 5.98047 15.8877 5.98047 15.2404V13.1934" stroke="#1A1A1A" stroke-width="0.761905" stroke-linecap="round" stroke-linejoin="round"/>
</svg>
