<svg width="26" height="25" viewBox="0 0 26 25" fill="none" xmlns="http://www.w3.org/2000/svg">
<path d="M24.3941 2.78564L25.3919 2.71949C25.3653 2.31835 25.1011 1.97213 24.7212 1.84064C24.3413 1.70915 23.9196 1.81796 23.6507 2.11684L24.3941 2.78564ZM23.764 7.61651C23.764 7.06422 23.3163 6.61651 22.764 6.61651C22.2117 6.61651 21.764 7.06422 21.764 7.61651H23.764ZM13.0008 9.07136V10.0714H14.0008V9.07136H13.0008ZM3.2024 2.78564L4.13891 2.435C3.99937 2.06232 3.65215 1.80785 3.25476 1.78702C2.85737 1.76618 2.48544 1.98295 2.3077 2.33898L3.2024 2.78564ZM9.57227 17.6428L10.2799 18.3493C10.5246 18.1042 10.6251 17.75 10.5455 17.4129C10.4658 17.0758 10.2175 16.8039 9.88893 16.6943L9.57227 17.6428ZM1.57227 20.7448V19.7448C1.13173 19.7448 0.743087 20.0331 0.615277 20.4547C0.487466 20.8763 0.650599 21.3319 1.01697 21.5765L1.57227 20.7448ZM21.5168 4.37484L20.7751 5.04552L21.1354 5.44401L21.6666 5.36356L21.5168 4.37484ZM23.3963 2.8518C23.4799 4.11245 23.4004 4.85402 23.2069 5.39943C23.0209 5.92394 22.6951 6.3646 22.0721 6.96158L23.4559 8.40563C24.1799 7.71182 24.7562 7.0144 25.0918 6.06808C25.4201 5.14266 25.4822 4.08065 25.3919 2.71949L23.3963 2.8518ZM23.764 8.80604V7.6836H21.764V8.80604H23.764ZM23.764 7.6836V7.61651H21.764V7.6836H23.764ZM12.0008 7.9285V9.07136H14.0008V7.9285H12.0008ZM17.9406 1.78564C14.5995 1.78564 12.0008 4.68639 12.0008 7.9285H14.0008C14.0008 5.68636 15.8059 3.78564 17.9406 3.78564V1.78564ZM21.764 8.80604C21.764 15.7688 15.9128 21.7856 9.00084 21.7856V23.7856C17.0564 23.7856 23.764 16.8339 23.764 8.80604H21.764ZM2.26589 3.13629C3.18446 5.58959 6.60542 10.0714 13.0008 10.0714V8.07136C7.65929 8.07136 4.85047 4.33544 4.13891 2.435L2.26589 3.13629ZM2.3077 2.33898C0.583363 5.79298 0.268533 9.20444 1.4912 12.1304C2.71389 15.0564 5.39246 17.3016 9.2556 18.5913L9.88893 16.6943C6.41647 15.535 4.27998 13.6169 3.33656 11.3593C2.39313 9.10155 2.56117 6.30892 4.0971 3.23231L2.3077 2.33898ZM8.86461 16.9362C7.92025 17.8821 5.16132 19.7448 1.57227 19.7448V21.7448C5.80785 21.7448 9.0508 19.5804 10.2799 18.3493L8.86461 16.9362ZM22.2586 3.70415C21.1946 2.52747 19.6536 1.78564 17.9406 1.78564V3.78564C19.0643 3.78564 20.0739 4.27008 20.7751 5.04552L22.2586 3.70415ZM21.6666 5.36356C22.9519 5.16889 24.2014 4.49507 25.1376 3.45445L23.6507 2.11684C23.0121 2.82666 22.1768 3.26348 21.3671 3.38611L21.6666 5.36356ZM1.01697 21.5765C3.67868 23.3537 6.2427 23.7856 9.00084 23.7856V21.7856C6.4907 21.7856 4.35626 21.4013 2.12756 19.9132L1.01697 21.5765Z" fill="white"/>
</svg>
