<svg width="59" height="48" viewBox="0 0 59 48" fill="none" xmlns="http://www.w3.org/2000/svg">
<path d="M52.8335 16.989V45.8748C52.8335 46.6802 52.1806 47.3332 51.3751 47.3332H7.62514C6.81972 47.3332 6.1668 46.6802 6.1668 45.8748V16.989L0.437774 2.66645C0.0546033 1.70852 0.760084 0.666504 1.7918 0.666504H30.9585C31.5548 0.666504 32.091 1.02956 32.3125 1.58323L36.7918 12.7815L41.2711 1.58323C41.4926 1.02956 42.0288 0.666504 42.6251 0.666504H57.2085C58.2402 0.666504 58.9457 1.70852 58.5625 2.66645L52.8335 16.989ZM38.2501 18.1665V44.4165H49.9168V18.1665H38.2501ZM35.3335 18.1665H9.08347V44.4165H35.3335V18.1665ZM8.61248 15.2498H34.6378L29.9711 3.58317H3.94581L8.61248 15.2498ZM50.3878 15.2498L55.0545 3.58317H43.6125L38.9458 15.2498H50.3878ZM32.4168 34.2082V40.0415C32.4168 40.8469 31.7639 41.4998 30.9585 41.4998H22.2085C21.4031 41.4998 20.7501 40.8469 20.7501 40.0415V34.2082C20.7501 33.4028 21.4031 32.7498 22.2085 32.7498H30.9585C31.7639 32.7498 32.4168 33.4028 32.4168 34.2082ZM29.5001 35.6665H23.6668V38.5832H29.5001V35.6665Z" fill="#1A1A1A"/>
</svg>
