<svg width="51" height="50" viewBox="0 0 51 50" fill="none" xmlns="http://www.w3.org/2000/svg">
<path d="M4.28029 32.5H15.9298C15.6487 30.1309 15.5 27.6111 15.5 25C15.5 22.3889 15.6487 19.8691 15.9298 17.5H4.28029C3.45116 19.8458 3 22.3702 3 25C3 27.6298 3.45116 30.1542 4.28029 32.5ZM5.3388 35C8.31476 40.9884 13.8802 45.4628 20.57 46.9582C18.6222 44.3069 17.1304 40.0928 16.2844 35H5.3388ZM46.7197 32.5C47.5489 30.1542 48 27.6298 48 25C48 22.3702 47.5489 19.8458 46.7197 17.5H35.0703C35.3513 19.8691 35.5 22.3889 35.5 25C35.5 27.6111 35.3513 30.1309 35.0703 32.5H46.7197ZM45.6612 35H34.7156C33.8696 40.0928 32.3778 44.3069 30.43 46.9582C37.1198 45.4628 42.6852 40.9884 45.6612 35ZM18.461 32.5H32.539C32.8351 30.156 33 27.6321 33 25C33 22.3679 32.8351 19.844 32.539 17.5H18.461C18.165 19.844 18 22.3679 18 25C18 27.6321 18.165 30.156 18.461 32.5ZM18.8375 35C20.1429 42.4196 22.7952 47.5 25.5 47.5C28.2048 47.5 30.8571 42.4196 32.1626 35H18.8375ZM5.3388 15H16.2844C17.1304 9.90716 18.6222 5.69306 20.57 3.04177C13.8802 4.53721 8.31476 9.01164 5.3388 15ZM45.6612 15C42.6852 9.01164 37.1198 4.53721 30.43 3.04177C32.3778 5.69306 33.8696 9.90716 34.7156 15H45.6612ZM18.8375 15H32.1626C30.8571 7.58043 28.2048 2.5 25.5 2.5C22.7952 2.5 20.1429 7.58043 18.8375 15ZM25.5 50C11.6929 50 0.5 38.8071 0.5 25C0.5 11.1929 11.6929 0 25.5 0C39.3071 0 50.5 11.1929 50.5 25C50.5 38.8071 39.3071 50 25.5 50Z" fill="#1A1A1A"/>
</svg>
