<svg width="45" height="46" viewBox="0 0 45 46" fill="none" xmlns="http://www.w3.org/2000/svg">
<path d="M4.99957 8.85555C9.217 3.63853 15.5914 0.5 22.4996 0.5C34.926 0.5 44.9996 10.5736 44.9996 23C44.9996 35.4264 34.926 45.5 22.4996 45.5C10.5882 45.5 0.759396 36.2166 0.0413971 24.3826C-0.000411537 23.6935 0.524313 23.101 1.2134 23.0592C1.90249 23.0174 2.495 23.5421 2.53681 24.2312C3.17487 34.7477 11.9121 43 22.4996 43C33.5453 43 42.4996 34.0457 42.4996 23C42.4996 11.9543 33.5453 3 22.4996 3C16.326 3 10.6344 5.81783 6.8852 10.5H13.7496C14.4399 10.5 14.9996 11.0596 14.9996 11.75C14.9996 12.4404 14.4399 13 13.7496 13H3.74957C3.05922 13 2.49957 12.4404 2.49957 11.75V1.75C2.49957 1.05964 3.05922 0.5 3.74957 0.5C4.43993 0.5 4.99957 1.05964 4.99957 1.75V8.85555Z" fill="#1A1A1A"/>
</svg>
