<svg width="47" height="47" viewBox="0 0 47 47" fill="none" xmlns="http://www.w3.org/2000/svg">
<path d="M3.41667 21.875V42.2917C3.41667 43.0971 4.06959 43.75 4.875 43.75H10.7083C11.5138 43.75 12.1667 43.0971 12.1667 42.2917V21.875C12.1667 21.0696 11.5138 20.4167 10.7083 20.4167H4.875C4.06959 20.4167 3.41667 21.0696 3.41667 21.875ZM13.625 18.614L16.1974 13.4693C17.3828 11.0984 18 8.48406 18 5.83333V5.10417C18 2.28521 20.2852 0 23.1042 0C25.9231 0 28.2834 2.13603 28.5639 4.94096L29.5281 14.5833H39.2626C43.2897 14.5833 46.5542 17.8479 46.5542 21.875C46.5542 22.1173 46.5422 22.3594 46.5181 22.6005L44.7681 40.1005C44.3953 43.8281 41.2587 46.6667 37.5126 46.6667H19.4583C17.4967 46.6667 15.716 45.8921 14.4054 44.632C13.6296 45.855 12.2638 46.6667 10.7083 46.6667H4.875C2.45875 46.6667 0.5 44.7079 0.5 42.2917V21.875C0.5 19.4588 2.45875 17.5 4.875 17.5H10.7083C11.8289 17.5 12.851 17.9212 13.625 18.614ZM15.0833 22.2193V39.375C15.0833 41.7912 17.0421 43.75 19.4583 43.75H37.5126C39.7602 43.75 41.6422 42.0468 41.8659 39.8103L43.6159 22.3103C43.6303 22.1657 43.6376 22.0204 43.6376 21.875C43.6376 19.4588 41.6788 17.5 39.2626 17.5H28.2083C27.4591 17.5 26.8318 16.9323 26.7572 16.1868L25.6617 5.23118C25.5303 3.91726 24.4246 2.91667 23.1042 2.91667C21.896 2.91667 20.9167 3.89604 20.9167 5.10417V5.83333C20.9167 8.93686 20.1941 11.9978 18.8061 14.7736L15.0833 22.2193Z" fill="#1A1A1A"/>
</svg>
