<svg width="18" height="19" viewBox="0 0 18 19" fill="none" xmlns="http://www.w3.org/2000/svg">
<path d="M4.43555 0H5.43555C5.70076 0 5.95512 0.105357 6.14265 0.292893C6.33019 0.48043 6.43555 0.734784 6.43555 1V2H11.4355V1C11.4355 0.734784 11.5409 0.48043 11.7284 0.292893C11.916 0.105357 12.1703 0 12.4355 0H13.4355C13.7008 0 13.9551 0.105357 14.1427 0.292893C14.3302 0.48043 14.4355 0.734784 14.4355 1V2C15.2312 2 15.9943 2.31607 16.5569 2.87868C17.1195 3.44129 17.4355 4.20435 17.4355 5V16C17.4355 16.7956 17.1195 17.5587 16.5569 18.1213C15.9943 18.6839 15.2312 19 14.4355 19H3.43555C2.6399 19 1.87684 18.6839 1.31423 18.1213C0.751617 17.5587 0.435547 16.7956 0.435547 16V5C0.435547 4.20435 0.751617 3.44129 1.31423 2.87868C1.87684 2.31607 2.6399 2 3.43555 2V1C3.43555 0.734784 3.5409 0.48043 3.72844 0.292893C3.91598 0.105357 4.17033 0 4.43555 0ZM12.4355 2H13.4355V1H12.4355V2ZM5.43555 2V1H4.43555V2H5.43555ZM3.43555 3C2.90511 3 2.39641 3.21071 2.02133 3.58579C1.64626 3.96086 1.43555 4.46957 1.43555 5V6H16.4355V5C16.4355 4.46957 16.2248 3.96086 15.8498 3.58579C15.4747 3.21071 14.966 3 14.4355 3H3.43555ZM1.43555 16C1.43555 16.5304 1.64626 17.0391 2.02133 17.4142C2.39641 17.7893 2.90511 18 3.43555 18H14.4355C14.966 18 15.4747 17.7893 15.8498 17.4142C16.2248 17.0391 16.4355 16.5304 16.4355 16V7H1.43555V16ZM9.43555 11H14.4355V16H9.43555V11ZM10.4355 12V15H13.4355V12H10.4355Z" fill="#D6D6D6"/>
</svg>
