<svg width="80" height="80" viewBox="0 0 80 80" fill="none" xmlns="http://www.w3.org/2000/svg">
<path d="M23.3334 22.6701V57.2034C23.3344 57.8013 23.4962 58.3879 23.8018 58.9018C24.1074 59.4157 24.5456 59.8379 25.0705 60.1242C25.5954 60.4105 26.1876 60.5503 26.7852 60.5291C27.3827 60.5078 27.9635 60.3263 28.4667 60.0034L55.6 42.7367C56.0751 42.4361 56.4664 42.0202 56.7375 41.5278C57.0086 41.0353 57.1508 40.4822 57.1508 39.9201C57.1508 39.3579 57.0086 38.8049 56.7375 38.3124C56.4664 37.8199 56.0751 37.404 55.6 37.1034L28.4667 19.8701C27.9635 19.5472 27.3827 19.3656 26.7852 19.3444C26.1876 19.3231 25.5954 19.463 25.0705 19.7493C24.5456 20.0356 24.1074 20.4578 23.8018 20.9717C23.4962 21.4856 23.3344 22.0722 23.3334 22.6701Z" fill="white"/>
</svg>
