<svg width="29" height="46" viewBox="0 0 29 46" fill="none" xmlns="http://www.w3.org/2000/svg">
<path d="M1.66634 24.6665V21.9998H9.19434C8.99167 20.7358 8.75167 19.5998 8.52501 18.5252C8.02634 16.1785 7.55701 13.9598 7.67167 11.2772C7.86901 6.47451 9.46101 3.14385 12.3997 1.37585C16.8957 -1.32015 23.141 0.615848 25.7277 1.62651L25.2797 4.32518C23.549 3.59985 17.557 1.38118 13.7677 3.66651C11.6477 4.94118 10.493 7.53851 10.333 11.3892C10.2343 13.7358 10.653 15.6985 11.133 17.9705C11.3943 19.2025 11.6717 20.5145 11.893 21.9998H22.9997V24.6665H12.1997C12.285 25.6878 12.333 26.7945 12.333 28.0025C12.333 36.4745 8.40501 40.6238 5.25567 43.3332H28.333V45.9998H0.333008V43.3332L2.47967 42.1812C5.51434 39.6638 9.66634 36.2185 9.66634 27.9998C9.66634 26.7892 9.61301 25.6852 9.52501 24.6638H1.66634V24.6665Z" fill="#4A4949"/>
</svg>
