<svg width="18" height="18" viewBox="0 0 18 18" fill="none" xmlns="http://www.w3.org/2000/svg">
<path d="M9.0625 1.5C8.08574 1.50006 7.11855 1.6925 6.21616 2.06635C5.31377 2.44019 4.49385 2.98811 3.80321 3.67883C3.11258 4.36955 2.56475 5.18953 2.19101 6.09197C1.81727 6.9944 1.62494 7.96161 1.625 8.93838C1.62506 9.91514 1.8175 10.8823 2.19135 11.7847C2.56519 12.6871 3.11311 13.507 3.80383 14.1977C4.49455 14.8883 5.31453 15.4361 6.21697 15.8099C7.1194 16.1836 8.08661 16.3759 9.06338 16.3759C11.036 16.3758 12.9279 15.592 14.3227 14.197C15.7175 12.8021 16.501 10.9102 16.5009 8.9375C16.5008 6.96484 15.717 5.07301 14.322 3.67821C12.9271 2.28341 11.0352 1.49988 9.0625 1.5V1.5ZM9.0625 0.625C11.2671 0.625 13.3814 1.50078 14.9403 3.05967C16.4992 4.61857 17.375 6.73289 17.375 8.9375C17.375 11.1421 16.4992 13.2564 14.9403 14.8153C13.3814 16.3742 11.2671 17.25 9.0625 17.25C6.85789 17.25 4.74357 16.3742 3.18467 14.8153C1.62578 13.2564 0.75 11.1421 0.75 8.9375C0.75 6.73289 1.62578 4.61857 3.18467 3.05967C4.74357 1.50078 6.85789 0.625 9.0625 0.625V0.625ZM8.625 12.875H9.5V14.625H8.625V12.875ZM9.0625 3.25C9.87473 3.25 10.6537 3.57266 11.228 4.14699C11.8023 4.72132 12.125 5.50027 12.125 6.3125C12.125 7.09738 11.5134 7.64162 10.8659 8.2165L10.0478 9.00663C9.53325 9.59638 9.47725 10.7172 9.49912 11.0996V11.125H8.625C8.6215 11.0795 8.53575 9.4065 9.38975 8.43087L10.284 7.56287C10.802 7.10262 11.25 6.7045 11.25 6.3125C11.25 5.73234 11.0195 5.17594 10.6093 4.7657C10.1991 4.35547 9.64266 4.125 9.0625 4.125C8.48234 4.125 7.92594 4.35547 7.5157 4.7657C7.10547 5.17594 6.875 5.73234 6.875 6.3125H6C6 5.50027 6.32266 4.72132 6.89699 4.14699C7.47132 3.57266 8.25027 3.25 9.0625 3.25Z" fill="#C71118"/>
</svg>
