<svg width="47" height="37" viewBox="0 0 47 37" fill="none" xmlns="http://www.w3.org/2000/svg">
<path d="M7.42105 0H39.5789C41.5471 0 43.4347 0.779641 44.8264 2.16741C46.2181 3.55518 47 5.4374 47 7.4V29.6C47 31.5626 46.2181 33.4448 44.8264 34.8326C43.4347 36.2204 41.5471 37 39.5789 37H7.42105C5.45287 37 3.56529 36.2204 2.17358 34.8326C0.781859 33.4448 0 31.5626 0 29.6V7.4C0 5.4374 0.781859 3.55518 2.17358 2.16741C3.56529 0.779641 5.45287 0 7.42105 0ZM7.42105 2.46667C6.21389 2.46667 5.10568 2.89833 4.24732 3.61613L23.5 16.0827L42.7527 3.61613C41.8636 2.87222 40.7396 2.46515 39.5789 2.46667H7.42105ZM23.5 19.0229L2.80516 5.624C2.58571 6.19053 2.47332 6.79268 2.47368 7.4V29.6C2.47368 30.9084 2.99492 32.1632 3.92273 33.0884C4.85055 34.0136 6.10893 34.5333 7.42105 34.5333H39.5789C40.8911 34.5333 42.1495 34.0136 43.0773 33.0884C44.0051 32.1632 44.5263 30.9084 44.5263 29.6V7.4C44.5263 6.77347 44.4101 6.17407 44.1948 5.624L23.5 19.0205V19.0229Z" fill="#4A4949"/>
</svg>
